<svg xmlns="http://www.w3.org/2000/svg" width="202" height="55" viewBox="0 0 202 55"><g fill="none"><path fill="#CE242A" d="M0.140593047,8.85736196 C2.36196319,8.57617587 4.55521472,8.29498978 6.77658487,8.04192229 C8.57617587,7.81697342 9.95398773,7.78885481 10.9100204,7.92944785 C11.8660532,8.0700409 12.597137,8.35122699 13.103272,8.74488753 C13.5812883,9.16666667 13.9187117,9.67280164 14.0874233,10.3195297 C14.256135,10.9662577 14.3404908,11.9785276 14.3686094,13.3563395 C14.3686094,14.0030675 14.3686094,14.6497955 14.3686094,15.2965235 C14.3686094,16.702454 14.1998978,17.7428425 13.8624744,18.4176892 C13.5250511,19.0925358 12.9064417,19.6267894 12.0347648,19.9923313 C11.1349693,20.3859918 9.98210634,20.6109407 8.51993865,20.6952965 C7.92944785,20.7234151 7.33895706,20.7515337 6.74846626,20.7796524 C6.74846626,23.6477505 6.74846626,26.5158487 6.74846626,29.4120654 C4.55521472,29.440184 2.33384458,29.4683027 0.140593047,29.4964213 L0.140593047,8.85736196 Z M6.72034765,11.6973415 C6.72034765,13.5250511 6.72034765,15.3246421 6.72034765,17.1523517 C6.91717791,17.1523517 7.05777096,17.1523517 7.19836401,17.1242331 C7.81697342,17.0679959 8.21063395,16.9274029 8.46370143,16.6462168 C8.68865031,16.3650307 8.80112474,15.8307771 8.80112474,15.043456 C8.80112474,14.4529652 8.80112474,13.8624744 8.80112474,13.2719836 C8.80112474,12.5408998 8.6605317,12.0628834 8.3793456,11.8660532 C8.15439673,11.6692229 7.56390593,11.6129857 6.72034765,11.6973415 L6.72034765,11.6973415 Z M21.7356851,17.7709611 C19.7392638,17.8834356 17.7709611,17.99591 15.7745399,18.1083845 C15.7745399,17.6866053 15.7745399,17.2929448 15.7745399,16.8711656 C15.7745399,15.4652352 15.9432515,14.3404908 16.3087935,13.5531697 C16.6743354,12.7658487 17.4335378,12.0066462 18.5301636,11.3317996 C19.654908,10.6288344 21.0889571,10.2070552 22.8885481,10.0664622 C25.0255624,9.89775051 26.6564417,10.0945808 27.7530675,10.7131902 C28.8496933,11.3317996 29.4964213,12.1472393 29.7213701,13.1595092 C29.946319,14.1717791 30.0587935,16.2806748 30.0869121,19.4580777 C30.0869121,22.6917178 30.1150307,25.9253579 30.1150307,29.158998 C28.0623722,29.1871166 25.9815951,29.1871166 23.9289366,29.2152352 C23.9289366,28.652863 23.9289366,28.0904908 23.9289366,27.5281186 C23.5352761,28.2029652 23.0572597,28.7091002 22.4386503,29.0746421 C21.8200409,29.4120654 21.0889571,29.5807771 20.2453988,29.6088957 C19.1206544,29.6088957 18.1083845,29.3558282 17.1804703,28.8215746 C16.2525562,28.2873211 15.7745399,27.1063395 15.7745399,25.2505112 C15.7745399,24.7443763 15.7745399,24.2382413 15.7745399,23.7602249 C15.7745399,22.3824131 16.0276074,21.454499 16.5056237,20.9202454 C16.9836401,20.3859918 18.2208589,19.7673824 20.1610429,18.9800613 C22.24182,18.1365031 23.3665644,17.5741309 23.5071575,17.3210634 C23.6477505,17.0679959 23.7321063,16.5337423 23.7321063,15.7464213 C23.7321063,14.7622699 23.6477505,14.1155419 23.4790389,13.8343558 C23.3103272,13.5531697 23.0572597,13.4125767 22.6635992,13.4406953 C22.24182,13.4688139 21.9606339,13.609407 21.8762781,13.8624744 C21.7638037,14.1155419 21.7356851,14.7622699 21.7356851,15.8026585 C21.7356851,16.4775051 21.7356851,17.1242331 21.7356851,17.7709611 Z M23.7602249,20.2735174 C22.747955,21.0046012 22.1574642,21.5669734 21.9887526,22.0449898 C21.8200409,22.4948875 21.7356851,23.1416155 21.7638037,24.0132924 C21.7638037,24.9974438 21.8481595,25.6160532 21.9887526,25.8972393 C22.1293456,26.1784254 22.4105317,26.3190184 22.8323108,26.2908998 C23.2259714,26.2908998 23.4790389,26.1784254 23.6196319,25.9534765 C23.7321063,25.7285276 23.7883436,25.1380368 23.7883436,24.1820041 C23.7602249,22.8604294 23.7602249,21.5669734 23.7602249,20.2735174 L23.7602249,20.2735174 Z M38.6068507,9.2791411 C38.5224949,10.150818 38.4381391,11.0224949 38.3537832,11.8941718 C39.2535787,9.98210634 40.603272,8.88548057 42.3466258,8.6605317 C42.3466258,11.0224949 42.3747444,13.3563395 42.3747444,15.7183027 C41.2218814,15.7745399 40.3502045,15.9432515 39.8159509,16.2806748 C39.2816973,16.6180982 38.944274,17.0398773 38.803681,17.5741309 C38.6912065,18.1083845 38.6349693,19.3456033 38.6349693,21.2576687 C38.6349693,23.8726994 38.6630879,26.4877301 38.6630879,29.1027607 C36.5541922,29.1308793 34.4171779,29.1308793 32.3082822,29.158998 C32.2801636,22.6635992 32.252045,16.196319 32.2239264,9.70092025 C34.3609407,9.5603272 36.497955,9.41973415 38.6068507,9.2791411 M51.0633947,5.82055215 C51.0633947,6.8890593 51.0633947,7.95756646 51.0633947,9.05419223 C51.6257669,9.02607362 52.2162577,8.99795501 52.7786299,8.9698364 C52.7786299,10.0664622 52.7786299,11.1349693 52.7786299,12.2315951 C52.2162577,12.2597137 51.6257669,12.2878323 51.0633947,12.3159509 C51.0915133,15.9713701 51.0915133,19.6267894 51.1196319,23.2822086 C51.1196319,24.6319018 51.2039877,25.3911043 51.3445808,25.5316973 C51.4851738,25.6722904 52.0756646,25.7566462 53.1160532,25.7285276 C53.1160532,26.8251534 53.1160532,27.9498978 53.1160532,29.0465235 C52.2724949,29.0465235 51.400818,29.0465235 50.5572597,29.0746421 C49.1232106,29.0746421 48.0828221,29.0465235 47.4642127,28.9059305 C46.8456033,28.793456 46.3113497,28.5403885 45.8333333,28.1186094 C45.355317,27.6968303 45.0741309,27.2188139 44.9335378,26.6845603 C44.8210634,26.1503067 44.7648262,24.8568507 44.7367076,22.8604294 C44.7367076,19.4580777 44.708589,16.0276074 44.6804703,12.6252556 C44.2305726,12.6533742 43.7806748,12.6814928 43.3026585,12.6814928 C43.3026585,11.6129857 43.3026585,10.5725971 43.3026585,9.50408998 C43.7525562,9.47597137 44.202454,9.44785276 44.6804703,9.41973415 C44.6804703,8.35122699 44.6804703,7.31083845 44.6804703,6.24233129 C46.8174847,6.07361963 48.9263804,5.93302658 51.0633947,5.82055215 M67.2034765,14.5935583 C65.3195297,14.6497955 63.4355828,14.6779141 61.551636,14.7341513 C61.551636,14.3686094 61.551636,13.9749489 61.551636,13.609407 C61.551636,12.6533742 61.4953988,12.0347648 61.3829243,11.7816973 C61.2704499,11.5286299 60.9892638,11.4161554 60.5674847,11.4161554 C60.2019427,11.4161554 59.9488753,11.5567485 59.752045,11.809816 C59.5833333,12.0628834 59.4989775,12.4003067 59.4989775,12.8783231 C59.4989775,13.5250511 59.5552147,13.9749489 59.6395706,14.2842536 C59.7239264,14.5654397 60.0051125,14.902863 60.4550102,15.2402863 C60.904908,15.5777096 61.8328221,16.0838446 63.2106339,16.7305726 C65.0664622,17.6022495 66.2755624,18.4176892 66.8660532,19.2331288 C67.456544,20.0204499 67.7377301,21.2014315 67.7377301,22.7198364 C67.7377301,24.4350716 67.5127812,25.7285276 67.091002,26.6002045 C66.6411043,27.4718814 65.9100204,28.146728 64.8977505,28.6247444 C63.857362,29.1027607 62.6201431,29.3277096 61.1579755,29.3558282 C59.5552147,29.3558282 58.1492843,29.1308793 56.9964213,28.6247444 C55.8435583,28.1186094 55.0562372,27.4718814 54.6344581,26.6283231 C54.2126789,25.7847648 53.9877301,24.4913088 53.9877301,22.7760736 C53.9877301,22.4386503 53.9877301,22.101227 53.9877301,21.7919223 C55.8716769,21.7638037 57.7556237,21.7075665 59.6114519,21.6794479 C59.6114519,22.1293456 59.6114519,22.5511247 59.6114519,23.0010225 C59.6114519,24.1257669 59.6958078,24.8568507 59.8364008,25.1661554 C59.9769939,25.5035787 60.25818,25.6722904 60.6799591,25.6722904 C61.1298569,25.6722904 61.4391616,25.559816 61.6359918,25.3348671 C61.8047035,25.1099182 61.8890593,24.6319018 61.8890593,23.900818 C61.8890593,22.8885481 61.7765849,22.2699387 61.5235174,22.0449898 C61.2704499,21.7919223 60.0332311,21.0608384 57.8118609,19.8798569 C55.9279141,18.8675869 54.8031697,17.9677914 54.3813906,17.1523517 C53.9596115,16.3087935 53.7627812,15.3246421 53.7627812,14.1717791 C53.7627812,12.5127812 53.9596115,11.303681 54.4095092,10.5163599 C54.859407,9.70092025 55.5904908,9.08231084 56.658998,8.60429448 C57.6993865,8.12627812 58.9366053,7.87321063 60.3425358,7.81697342 C61.7203476,7.7607362 62.9013292,7.90132924 63.8854806,8.21063395 C64.8696319,8.51993865 65.6007157,8.9698364 66.1349693,9.53220859 C66.6692229,10.0945808 66.9785276,10.6288344 67.091002,11.1068507 C67.2034765,11.6129857 67.2597137,12.3721881 67.2597137,13.4406953 C67.2034765,13.7781186 67.2034765,14.1998978 67.2034765,14.5935583 M86.7177914,2.6993865 C87.9831288,11.4161554 89.2765849,20.1329243 90.5419223,28.8778119 C88.2924335,28.8778119 86.0429448,28.8778119 83.7653374,28.8778119 C83.652863,27.3031697 83.5122699,25.7566462 83.3997955,24.1820041 C82.6124744,24.1820041 81.8251534,24.1820041 81.0378323,24.1820041 C80.8972393,25.7566462 80.7847648,27.3031697 80.6441718,28.8778119 C78.3665644,28.8778119 76.0889571,28.8778119 73.7832311,28.9059305 C74.8798569,20.2735174 76.0046012,11.5848671 77.101227,2.89621677 C80.3348671,2.81186094 83.5403885,2.75562372 86.7177914,2.6993865 L86.7177914,2.6993865 Z M83.2310838,19.5705521 C82.8936605,16.6180982 82.5562372,12.9626789 82.1906953,8.60429448 C81.5158487,13.609407 81.0940695,17.2648262 80.9253579,19.5986708 C81.7126789,19.5705521 82.4718814,19.5705521 83.2310838,19.5705521 L83.2310838,19.5705521 Z M106.063395,5.0894683 C106.063395,13.0751534 106.063395,21.0608384 106.035276,29.0465235 C103.870143,29.0465235 101.733129,29.0465235 99.5679959,29.0465235 C99.5961145,28.3716769 99.6523517,27.7249489 99.6804703,27.0501022 C99.2305726,27.8655419 98.696319,28.4560327 98.049591,28.8778119 C97.402863,29.2714724 96.6717791,29.4964213 95.8282209,29.4964213 C94.8721881,29.4964213 94.0848671,29.299591 93.4381391,28.9059305 C92.8195297,28.5122699 92.3415133,28.006135 92.0322086,27.359407 C91.7229039,26.7126789 91.5541922,26.0659509 91.4698364,25.3629857 C91.3854806,24.6600204 91.357362,23.2822086 91.357362,21.2295501 C91.357362,15.8307771 91.357362,10.4601227 91.357362,5.06134969 C93.4943763,5.03323108 95.603272,5.03323108 97.7402863,5.03323108 L97.7402863,21.3420245 C97.7402863,23.1978528 97.7965235,24.3225971 97.8808793,24.6600204 C97.9933538,24.9974438 98.2464213,25.194274 98.696319,25.194274 C99.1743354,25.194274 99.4555215,25.0255624 99.5398773,24.6600204 C99.6242331,24.2944785 99.6804703,23.1416155 99.6804703,21.1733129 C99.6804703,15.8026585 99.6804703,10.4038855 99.6804703,5.03323108 C101.817485,5.03323108 103.92638,5.06134969 106.063395,5.0894683 M115.06135,2.61503067 C115.06135,3.85224949 115.06135,5.11758691 115.06135,6.35480573 C115.623722,6.35480573 116.214213,6.38292434 116.776585,6.38292434 C116.776585,7.64826176 116.776585,8.88548057 116.776585,10.150818 C116.214213,10.150818 115.623722,10.1226994 115.06135,10.1226994 C115.06135,14.3686094 115.033231,18.6145194 115.033231,22.8604294 C115.033231,24.4350716 115.089468,25.3067485 115.230061,25.4754601 C115.370654,25.6441718 115.961145,25.7566462 117.001534,25.7566462 C117.001534,27.0219836 117.001534,28.3154397 117.001534,29.5807771 C116.157975,29.5807771 115.286299,29.5807771 114.44274,29.5807771 C112.980573,29.5807771 111.968303,29.4964213 111.349693,29.3558282 C110.731084,29.2152352 110.19683,28.9059305 109.718814,28.3997955 C109.240798,27.8936605 108.959611,27.3312883 108.847137,26.6845603 C108.734663,26.0378323 108.678425,24.5194274 108.678425,22.1574642 C108.678425,18.1083845 108.678425,14.0593047 108.678425,10.0102249 C108.228528,10.0102249 107.77863,10.0102249 107.300613,9.98210634 C107.300613,8.71676892 107.300613,7.45143149 107.300613,6.18609407 C107.750511,6.18609407 108.228528,6.18609407 108.678425,6.21421268 C108.678425,4.94887526 108.678425,3.71165644 108.678425,2.44631902 C110.81544,2.53067485 112.952454,2.55879346 115.06135,2.61503067 M124.56544,0.281186094 C124.56544,2.44631902 124.56544,4.61145194 124.537321,6.74846626 C125.099693,6.18609407 125.662065,5.79243354 126.308793,5.51124744 C126.955521,5.25817996 127.630368,5.14570552 128.361452,5.14570552 C129.486196,5.17382413 130.41411,5.53936605 131.201431,6.21421268 C131.988753,6.8890593 132.466769,7.62014315 132.635481,8.46370143 C132.804192,9.30725971 132.888548,10.797546 132.888548,12.9907975 C132.860429,18.3614519 132.860429,23.7039877 132.832311,29.0746421 C130.723415,29.0746421 128.586401,29.0465235 126.477505,29.0465235 C126.477505,23.5071575 126.505624,17.99591 126.505624,12.456544 C126.505624,11.0787321 126.449387,10.2070552 126.336912,9.81339468 C126.224438,9.41973415 125.943252,9.22290389 125.521472,9.19478528 C125.127812,9.19478528 124.874744,9.36349693 124.734151,9.78527607 C124.593558,10.1789366 124.537321,10.9943763 124.509202,12.1753579 C124.509202,17.7990798 124.481084,23.394683 124.481084,29.0184049 C122.372188,29.0184049 120.235174,28.9902863 118.126278,28.9902863 C118.154397,19.3174847 118.154397,9.67280164 118.182515,0 C120.31953,0.112474438 122.456544,0.196830266 124.56544,0.281186094 M149.450409,14.5935583 C149.450409,16.4493865 149.42229,18.2770961 149.42229,20.1329243 C149.42229,22.1574642 149.309816,23.6477505 149.112986,24.6037832 C148.916155,25.559816 148.522495,26.4314928 147.903885,27.2469325 C147.285276,28.0623722 146.469836,28.652863 145.513804,29.0465235 C144.529652,29.440184 143.433027,29.6370143 142.167689,29.6088957 C140.761759,29.6088957 139.580777,29.4120654 138.596626,29.0746421 C137.612474,28.7372188 136.853272,28.2029652 136.319018,27.5 C135.784765,26.7970348 135.391104,25.9534765 135.166155,24.9693252 C134.941207,23.9851738 134.828732,22.4948875 134.828732,20.5265849 C134.828732,18.5301636 134.828732,16.5618609 134.856851,14.5654397 C134.856851,12.4003067 135.0818,10.7131902 135.503579,9.53220859 C135.925358,8.32310838 136.68456,7.39519427 137.781186,6.72034765 C138.877812,6.04550102 140.283742,5.73619632 141.970859,5.84867076 C143.404908,5.93302658 144.614008,6.24233129 145.654397,6.74846626 C146.666667,7.28271984 147.453988,7.92944785 148.01636,8.68865031 C148.578732,9.44785276 148.944274,10.2351738 149.141104,11.0224949 C149.366053,11.7816973 149.478528,12.9907975 149.450409,14.5935583 Z M143.123722,12.597137 C143.123722,11.4161554 143.067485,10.6850716 142.95501,10.3757669 C142.842536,10.0664622 142.589468,9.89775051 142.223926,9.89775051 C141.858384,9.8696319 141.605317,10.0102249 141.464724,10.3195297 C141.352249,10.6288344 141.267894,11.3599182 141.267894,12.5408998 C141.267894,15.9994888 141.239775,19.4580777 141.239775,22.9166667 C141.239775,24.0132924 141.296012,24.7162577 141.408487,25.053681 C141.54908,25.3911043 141.774029,25.559816 142.139571,25.559816 C142.505112,25.559816 142.75818,25.4192229 142.898773,25.1099182 C143.011247,24.8006135 143.095603,24.1820041 143.095603,23.1697342 C143.095603,19.6267894 143.095603,16.1119632 143.123722,12.597137 L143.123722,12.597137 Z M157.942229,7.22648262 C157.857873,8.18251534 157.773517,9.13854806 157.689162,10.1226994 C158.617076,8.09815951 159.966769,7.11400818 161.710123,7.14212679 C161.710123,9.70092025 161.682004,12.2597137 161.682004,14.8185072 C160.529141,14.7622699 159.657464,14.8747444 159.123211,15.1840491 C158.560838,15.4933538 158.251534,15.9432515 158.110941,16.5337423 C157.970348,17.1242331 157.91411,18.4739264 157.91411,20.6109407 C157.91411,23.5071575 157.885992,26.4314928 157.885992,29.3277096 C155.777096,29.299591 153.640082,29.299591 151.531186,29.2714724 C151.559305,21.7919223 151.587423,14.3123722 151.615542,6.83282209 C153.696319,6.91717791 155.833333,7.08588957 157.942229,7.22648262 M169.667689,3.51482618 C169.667689,4.63957055 169.667689,5.76431493 169.667689,6.8890593 C167.502556,6.69222904 165.309305,6.49539877 163.144172,6.32668712 C163.144172,5.17382413 163.144172,4.02096115 163.144172,2.86809816 C165.309305,3.06492843 167.502556,3.26175869 169.667689,3.51482618 Z M169.639571,8.18251534 C169.611452,15.2684049 169.583333,22.3261759 169.555215,29.4120654 C167.390082,29.3839468 165.19683,29.3558282 163.003579,29.3558282 C163.031697,22.1293456 163.059816,14.8747444 163.087935,7.64826176 C165.281186,7.78885481 167.474438,7.98568507 169.639571,8.18251534 L169.639571,8.18251534 Z M178.609407,6.2704499 C178.609407,7.33895706 178.609407,8.43558282 178.609407,9.50408998 C179.171779,9.5603272 179.76227,9.61656442 180.324642,9.67280164 C180.324642,10.7413088 180.324642,11.809816 180.324642,12.9064417 C179.76227,12.8502045 179.171779,12.8220859 178.609407,12.7658487 C178.609407,16.4212679 178.581288,20.0766871 178.581288,23.7321063 C178.581288,25.0817996 178.637526,25.841002 178.778119,25.9815951 C178.918712,26.1503067 179.509202,26.2346626 180.549591,26.2627812 C180.549591,27.359407 180.549591,28.4560327 180.549591,29.5526585 C179.706033,29.5526585 178.834356,29.5245399 177.990798,29.5245399 C176.556748,29.4964213 175.51636,29.440184 174.897751,29.299591 C174.279141,29.158998 173.744888,28.8778119 173.266871,28.4560327 C172.788855,28.006135 172.507669,27.5 172.395194,26.9376278 C172.28272,26.3752556 172.226483,25.053681 172.226483,22.9447853 C172.226483,19.3737219 172.254601,15.8307771 172.254601,12.2597137 C171.804703,12.2315951 171.354806,12.2034765 170.876789,12.1472393 C170.876789,11.0224949 170.876789,9.92586912 170.876789,8.80112474 C171.326687,8.82924335 171.776585,8.88548057 172.254601,8.91359918 C172.254601,7.81697342 172.254601,6.69222904 172.254601,5.59560327 C174.391616,5.82055215 176.500511,6.04550102 178.609407,6.2704499 M196.324131,11.4723926 C195.73364,15.2684049 195.115031,19.1206544 194.496421,23.0010225 C194.215235,24.8568507 193.962168,26.1221881 193.765337,26.7970348 C193.568507,27.4718814 193.259202,28.0342536 192.809305,28.4560327 C192.359407,28.9059305 191.740798,29.2152352 190.925358,29.440184 C190.109918,29.6651329 188.844581,29.7494888 187.073108,29.7494888 L183.220859,29.7494888 C183.220859,28.8496933 183.220859,27.9217791 183.220859,27.0219836 C184.20501,27.0219836 184.851738,26.993865 185.132924,26.9376278 C185.41411,26.853272 185.554703,26.6845603 185.554703,26.4033742 C185.554703,26.2627812 185.41411,25.6722904 185.161043,24.6319018 C184.00818,19.8798569 182.883436,15.043456 181.730573,10.1226994 C183.642638,10.291411 185.554703,10.4601227 187.466769,10.6288344 C188.141616,14.4810838 188.844581,18.2770961 189.519427,22.0449898 C189.856851,18.3052147 190.194274,14.6216769 190.559816,10.9100204 C192.5,11.0787321 194.412065,11.2755624 196.324131,11.4723926"/><path fill="#161D36" d="M196.324131,40.5470348 C196.324131,40.743865 196.155419,40.9125767 195.93047,40.9125767 L0.393660532,40.9125767 C0.168711656,40.9125767 0,40.743865 0,40.5470348 L0,30.593047 C0,30.3962168 0.168711656,30.2275051 0.393660532,30.2275051 L195.93047,30.2275051 C196.155419,30.2275051 196.324131,30.3962168 196.324131,30.593047 L196.324131,40.5470348"/><path fill="#FFFFFE" d="M7.67638037,31.9989775 L5.6799591,38.5224949 L9.78527607,38.5224949 L10.0102249,37.3415133 L11.444274,37.3415133 L11.6692229,38.5224949 L15.7183027,38.5224949 L13.4406953,31.9989775 L7.67638037,31.9989775 L7.67638037,31.9989775 Z M9.98210634,36.1886503 C10.0664622,35.5981595 10.3195297,34.698364 10.7413088,33.4330266 C10.9662577,34.5296524 11.1349693,35.4294479 11.3317996,36.1886503 L9.98210634,36.1886503 L9.98210634,36.1886503 Z M21.1451943,33.1799591 L21.1451943,36.7791411 C21.1451943,37.2290389 21.1170757,37.4821063 21.0608384,37.5664622 C21.0046012,37.650818 20.8358896,37.6789366 20.5547035,37.6789366 C20.2735174,37.6789366 20.1329243,37.650818 20.0766871,37.5664622 C20.0204499,37.4821063 19.9923313,37.2290389 19.9923313,36.8353783 L19.9923313,33.2080777 L16.196319,33.2080777 L16.196319,36.8072597 C16.196319,37.2571575 16.2244376,37.5664622 16.2525562,37.7351738 C16.3087935,37.9038855 16.3931493,38.0444785 16.5899796,38.1850716 C16.7586912,38.3256646 17.0398773,38.4381391 17.4054192,38.5224949 C17.7709611,38.6068507 18.2489775,38.6630879 18.8394683,38.6630879 C19.3456033,38.6630879 19.795501,38.6068507 20.1610429,38.5224949 C20.5547035,38.4381391 20.8640082,38.297546 21.1170757,38.1007157 L21.0608384,38.5506135 L24.9130879,38.5506135 L24.9130879,33.2080777 L21.1451943,33.2080777 M26.4877301,32.4769939 L26.4877301,33.3205521 L25.6722904,33.3205521 L25.6722904,34.1641104 L26.4877301,34.1641104 L26.4877301,36.8634969 C26.4877301,37.3977505 26.5158487,37.7351738 26.5720859,37.8757669 C26.6564417,38.0163599 26.8251534,38.156953 27.1063395,38.2694274 C27.3875256,38.3819018 27.6968303,38.4381391 28.0904908,38.4662577 C28.4560327,38.4943763 29.0746421,38.5224949 29.946319,38.5224949 L31.4928425,38.5224949 L31.4928425,37.6789366 C30.8461145,37.6789366 30.4805726,37.650818 30.4243354,37.6226994 C30.3399796,37.5945808 30.2837423,37.3977505 30.2837423,37.0322086 L30.2837423,34.192229 L31.3522495,34.192229 L31.3522495,33.3486708 L30.2837423,33.3486708 L30.2837423,32.5051125 L26.4877301,32.5051125 M40.5751534,34.192229 C40.4626789,33.9953988 40.2377301,33.8266871 39.9003067,33.6579755 C39.5628834,33.4892638 39.0848671,33.3486708 38.4943763,33.2361963 C37.8757669,33.1237219 37.144683,33.0674847 36.3011247,33.0674847 C35.2888548,33.0674847 34.4452965,33.1518405 33.7985685,33.3205521 C33.1518405,33.4892638 32.7019427,33.7142127 32.4488753,33.9953988 C32.1958078,34.2765849 32.0552147,34.6702454 32.0552147,35.1763804 L32.0552147,36.5541922 C32.0552147,37.00409 32.1395706,37.3415133 32.2801636,37.5664622 C32.4207566,37.791411 32.6457055,37.9882413 32.9831288,38.156953 C33.2924335,38.3256646 33.7423313,38.4381391 34.3328221,38.5224949 C34.9233129,38.6068507 35.6262781,38.6349693 36.4698364,38.6349693 C37.2290389,38.6349693 37.9038855,38.5787321 38.4662577,38.4943763 C39.0567485,38.4100204 39.5066462,38.2694274 39.9003067,38.0725971 C40.2658487,37.8757669 40.4907975,37.6789366 40.603272,37.4539877 C40.7157464,37.2290389 40.7719836,36.8634969 40.7719836,36.3854806 L40.7719836,35.0639059 C40.7719836,34.6702454 40.7157464,34.3890593 40.5751534,34.192229 Z M36.9759714,37.1165644 C36.9759714,37.3415133 36.9478528,37.4821063 36.8634969,37.5664622 C36.8072597,37.650818 36.6385481,37.6789366 36.4135992,37.6789366 C36.1886503,37.6789366 36.0480573,37.650818 35.9637014,37.5664622 C35.8793456,37.4821063 35.851227,37.3133947 35.851227,37.0603272 L35.851227,34.6421268 C35.851227,34.3609407 35.8793456,34.192229 35.9637014,34.1359918 C36.0480573,34.051636 36.1886503,34.0235174 36.4135992,34.0235174 C36.6385481,34.0235174 36.8072597,34.051636 36.8634969,34.1359918 C36.9197342,34.2203476 36.9478528,34.3609407 36.9478528,34.6421268 L36.9478528,37.1165644 L36.9759714,37.1165644 Z M45.5240286,38.5224949 L49.4887526,38.5224949 L49.4887526,35.9074642 L50.5572597,35.9074642 C51.4289366,35.9074642 52.1037832,35.851227 52.6661554,35.7387526 C53.200409,35.6262781 53.5659509,35.4856851 53.7627812,35.2888548 C53.9877301,35.0920245 54.0720859,34.7827198 54.0720859,34.3890593 L54.0720859,33.8266871 C54.0720859,33.4330266 54.0158487,33.1237219 53.9314928,32.9268916 C53.847137,32.7300613 53.6221881,32.5613497 53.341002,32.4207566 C53.059816,32.2801636 52.6099182,32.1676892 52.0194274,32.1114519 C51.4289366,32.0270961 50.6134969,31.9989775 49.5449898,31.9989775 L45.5521472,31.9989775 L45.5521472,38.5224949 L45.5240286,38.5224949 Z M50.4729039,33.2080777 C50.6416155,33.2643149 50.7259714,33.4330266 50.7259714,33.6579755 L50.7259714,34.192229 C50.7259714,34.4171779 50.6416155,34.5858896 50.5010225,34.6702454 C50.3604294,34.7546012 50.107362,34.7827198 49.74182,34.7827198 C49.6574642,34.7827198 49.5731084,34.7827198 49.4606339,34.7827198 L49.4606339,33.1237219 C49.9948875,33.1237219 50.3323108,33.1518405 50.4729039,33.2080777 L50.4729039,33.2080777 Z M58.458589,34.6702454 C58.458589,34.3609407 58.4867076,34.192229 58.5429448,34.1078732 C58.599182,34.0235174 58.7678937,33.9953988 59.0209611,33.9953988 C59.24591,33.9953988 59.4146217,34.0235174 59.4989775,34.1078732 C59.5833333,34.192229 59.6395706,34.3890593 59.6395706,34.6702454 C59.6395706,34.8951943 59.6114519,35.0357873 59.4989775,35.1201431 C59.4146217,35.204499 58.7397751,35.345092 57.5025562,35.5419223 C56.3215746,35.7387526 55.5904908,35.9074642 55.3093047,36.0480573 C55.0281186,36.1886503 54.859407,36.4698364 54.859407,36.8634969 L54.859407,37.3133947 C54.859407,37.8476483 55.140593,38.2131902 55.6748466,38.3537832 C56.2372188,38.5224949 56.8558282,38.5787321 57.5025562,38.5787321 C58.0086912,38.5787321 58.458589,38.5224949 58.8241309,38.4381391 C59.1896728,38.3256646 59.4989775,38.1850716 59.7239264,37.9882413 L59.7239264,38.4662577 L63.4074642,38.4662577 L63.4074642,35.7949898 C63.4074642,34.8951943 63.351227,34.3328221 63.2106339,34.051636 C63.0700409,33.7704499 62.704499,33.545501 62.0296524,33.3486708 C61.3829243,33.1518405 60.4268916,33.0674847 59.1334356,33.0674847 C58.0649284,33.0674847 57.1932515,33.1518405 56.5184049,33.3205521 C55.8435583,33.4892638 55.3936605,33.6860941 55.1687117,33.9110429 C54.9437628,34.1359918 54.8312883,34.4452965 54.8312883,34.8670757 L54.8312883,35.2326176 L58.4023517,35.2326176 L58.4023517,34.6702454 L58.458589,34.6702454 Z M59.6676892,37.0603272 C59.6676892,37.3415133 59.6395706,37.5102249 59.5552147,37.5664622 C59.4989775,37.6226994 59.3302658,37.650818 59.105317,37.650818 C58.8522495,37.650818 58.6835378,37.6226994 58.599182,37.5383436 C58.5148262,37.4539877 58.458589,37.2852761 58.458589,37.00409 C58.458589,36.7791411 58.5148262,36.5823108 58.599182,36.4417178 C58.6835378,36.3011247 59.0490798,36.1605317 59.6676892,35.9637014 L59.6676892,37.0603272 L59.6676892,37.0603272 Z M64.7571575,33.1799591 L64.7571575,38.5224949 L68.5531697,38.5224949 L68.5531697,36.4135992 C68.5531697,35.9074642 68.5812883,35.5700409 68.6656442,35.4294479 C68.75,35.2888548 68.9468303,35.1763804 69.256135,35.0920245 C69.5935583,35.0076687 70.0996933,34.9795501 70.8026585,34.9795501 L70.8026585,33.0956033 C69.7341513,33.1237219 68.9468303,33.404908 68.3844581,33.8829243 L68.5250511,33.1799591 L64.7571575,33.1799591 M72.1804703,32.4769939 L72.1804703,33.3205521 L71.3650307,33.3205521 L71.3650307,34.1641104 L72.1804703,34.1641104 L72.1804703,36.8634969 C72.1804703,37.3977505 72.208589,37.7351738 72.2648262,37.8757669 C72.349182,38.0163599 72.5178937,38.156953 72.7990798,38.2694274 C73.0802658,38.3819018 73.3895706,38.4381391 73.7832311,38.4662577 C74.148773,38.4943763 74.7673824,38.5224949 75.6390593,38.5224949 L77.1855828,38.5224949 L77.1855828,37.6789366 C76.5388548,37.6789366 76.1733129,37.650818 76.1170757,37.6226994 C76.0327198,37.5945808 75.9764826,37.3977505 75.9764826,37.0322086 L75.9764826,34.192229 L77.0449898,34.192229 L77.0449898,33.3486708 L75.9764826,33.3486708 L75.9764826,32.5051125 L72.1804703,32.5051125 M85.6211656,34.557771 C85.6211656,34.3047035 85.593047,34.1078732 85.5368098,33.9672802 C85.452454,33.8548057 85.2837423,33.7142127 84.9744376,33.5736196 C84.6651329,33.4330266 84.2152352,33.2924335 83.6247444,33.2080777 C83.0342536,33.1237219 82.359407,33.0674847 81.5158487,33.0674847 C80.700409,33.0674847 79.9693252,33.1237219 79.3225971,33.2361963 C78.6758691,33.3486708 78.25409,33.4892638 77.9729039,33.7142127 C77.7198364,33.9110429 77.5792434,34.2203476 77.5792434,34.6702454 C77.5792434,34.9795501 77.6917178,35.2326176 77.9447853,35.4575665 C78.1978528,35.6825153 78.8726994,35.9074642 79.9974438,36.1886503 C81.3190184,36.497955 82.0501022,36.6947853 82.1906953,36.7510225 C82.3312883,36.8072597 82.4156442,36.9759714 82.4156442,37.2290389 C82.4156442,37.4258691 82.359407,37.5383436 82.2750511,37.5945808 C82.1625767,37.650818 81.993865,37.6789366 81.7126789,37.6789366 C81.4596115,37.6789366 81.2908998,37.650818 81.206544,37.5383436 C81.1221881,37.4539877 81.0659509,37.2852761 81.0659509,36.9759714 L81.0659509,36.6385481 L77.6917178,36.6385481 L77.6917178,36.8916155 C77.6917178,37.3415133 77.8323108,37.6789366 78.0853783,37.8757669 C78.3384458,38.1007157 78.8164622,38.2694274 79.4913088,38.4100204 C80.194274,38.5224949 81.0097137,38.6068507 81.9657464,38.6068507 C82.8374233,38.6068507 83.5966258,38.5506135 84.1871166,38.4381391 C84.805726,38.3256646 85.2556237,38.156953 85.5086912,37.9320041 C85.7617587,37.7070552 85.9023517,37.3977505 85.9023517,36.9478528 C85.9023517,36.5541922 85.7336401,36.2730061 85.3962168,36.0480573 C85.0587935,35.851227 84.3277096,35.6262781 83.2310838,35.4013292 C82.4156442,35.2326176 81.853272,35.0920245 81.6002045,35.0076687 C81.3190184,34.9233129 81.1784254,34.8389571 81.1221881,34.7546012 C81.0659509,34.6702454 81.0378323,34.557771 81.0378323,34.3890593 C81.0378323,34.2765849 81.0940695,34.1641104 81.1784254,34.1078732 C81.2908998,34.051636 81.4596115,34.0235174 81.6564417,34.0235174 C81.9376278,34.0235174 82.0782209,34.051636 82.1625767,34.1359918 C82.2188139,34.192229 82.2469325,34.3609407 82.2469325,34.6140082 L82.2469325,34.8951943 L85.593047,34.8951943 L85.593047,34.557771 M98.8087935,33.7142127 C98.8087935,33.2080777 98.696319,32.8144172 98.4713701,32.6175869 C98.2464213,32.392638 97.7684049,32.2239264 97.0373211,32.0833333 C96.3343558,31.9427403 95.4345603,31.8583845 94.4222904,31.8583845 C93.4662577,31.8583845 92.6789366,31.9146217 92.00409,32.0552147 C91.357362,32.1676892 90.8793456,32.3645194 90.5700409,32.5894683 C90.2888548,32.8144172 90.1201431,33.1799591 90.1201431,33.6860941 C90.1201431,34.0235174 90.204499,34.3328221 90.4294479,34.5296524 C90.6543967,34.7264826 90.9074642,34.9233129 91.2448875,35.0357873 C91.5541922,35.1482618 92.2009202,35.3732106 93.1850716,35.6543967 C94.1692229,35.9355828 94.7878323,36.1324131 95.0408998,36.2448875 C95.2939673,36.357362 95.4064417,36.6104294 95.4064417,37.00409 C95.4064417,37.1728016 95.3502045,37.3133947 95.2096115,37.3977505 C95.0690184,37.4821063 94.8721881,37.5383436 94.6191207,37.5383436 C94.3379346,37.5383436 94.1692229,37.5102249 94.0567485,37.4258691 C93.9723926,37.3696319 93.9161554,37.2009202 93.9161554,36.9478528 L93.9161554,36.1605317 L90.2326176,36.1605317 L90.2326176,36.5823108 C90.2326176,37.0603272 90.345092,37.4539877 90.5700409,37.7070552 C90.7949898,37.9601227 91.3011247,38.1850716 92.0322086,38.3537832 C92.791411,38.5224949 93.6912065,38.6068507 94.7597137,38.6068507 C95.7157464,38.6068507 96.5593047,38.5224949 97.2903885,38.3819018 C98.0214724,38.2413088 98.4994888,38.0444785 98.7525562,37.8195297 C99.0056237,37.5945808 99.1462168,37.2571575 99.1462168,36.7791411 C99.1462168,36.1324131 98.9212679,35.6825153 98.4432515,35.4013292 C97.9933538,35.1201431 96.896728,34.7546012 95.1252556,34.3047035 C94.5066462,34.1359918 94.1411043,34.0235174 94.0005112,33.9110429 C93.8599182,33.7985685 93.7755624,33.6298569 93.7755624,33.4330266 C93.7755624,33.2643149 93.8317996,33.1237219 93.944274,33.0674847 C94.0848671,32.9831288 94.2535787,32.9550102 94.4785276,32.9550102 C94.7034765,32.9550102 94.8721881,32.9831288 94.956544,33.0393661 C95.0408998,33.0956033 95.097137,33.2361963 95.097137,33.4611452 L95.097137,33.9391616 L98.7806748,33.9391616 L98.7806748,33.7142127 M148.663088,33.7142127 C148.663088,33.2080777 148.550613,32.8144172 148.325665,32.6175869 C148.100716,32.392638 147.622699,32.2239264 146.891616,32.0833333 C146.18865,31.9427403 145.288855,31.8583845 144.276585,31.8583845 C143.320552,31.8583845 142.533231,31.9146217 141.858384,32.0552147 C141.211656,32.1676892 140.73364,32.3645194 140.424335,32.5894683 C140.143149,32.8144172 139.974438,33.1799591 139.974438,33.6860941 C139.974438,34.0235174 140.058793,34.3328221 140.283742,34.5296524 C140.508691,34.7546012 140.761759,34.9233129 141.099182,35.0357873 C141.408487,35.1482618 142.055215,35.3732106 143.039366,35.6543967 C144.023517,35.9355828 144.642127,36.1324131 144.895194,36.2448875 C145.148262,36.357362 145.260736,36.6104294 145.260736,37.00409 C145.260736,37.1728016 145.204499,37.3133947 145.063906,37.3977505 C144.923313,37.4821063 144.726483,37.5383436 144.473415,37.5383436 C144.192229,37.5383436 144.023517,37.5102249 143.911043,37.4258691 C143.826687,37.3696319 143.77045,37.2009202 143.77045,36.9478528 L143.77045,36.1605317 L140.086912,36.1605317 L140.086912,36.5823108 C140.086912,37.0603272 140.199387,37.4539877 140.424335,37.7070552 C140.649284,37.9601227 141.155419,38.1850716 141.886503,38.3537832 C142.645706,38.5224949 143.545501,38.6068507 144.614008,38.6068507 C145.570041,38.6068507 146.413599,38.5224949 147.144683,38.3819018 C147.875767,38.2413088 148.353783,38.0444785 148.606851,37.8195297 C148.859918,37.5945808 149.000511,37.2571575 149.000511,36.7791411 C149.000511,36.1324131 148.775562,35.6825153 148.297546,35.4013292 C147.847648,35.1201431 146.751022,34.7546012 144.97955,34.3047035 C144.360941,34.1359918 143.995399,34.0235174 143.854806,33.9110429 C143.714213,33.7985685 143.629857,33.6298569 143.629857,33.4330266 C143.629857,33.2643149 143.686094,33.1237219 143.798569,33.0674847 C143.939162,32.9831288 144.107873,32.9550102 144.332822,32.9550102 C144.557771,32.9550102 144.726483,32.9831288 144.810838,33.0393661 C144.895194,33.0956033 144.951431,33.2361963 144.951431,33.4611452 L144.951431,33.9391616 L148.634969,33.9391616 L148.634969,33.7142127 M105.163599,33.1799591 L105.163599,36.7791411 C105.163599,37.2290389 105.135481,37.4821063 105.079243,37.5664622 C105.023006,37.650818 104.854294,37.6789366 104.573108,37.6789366 C104.291922,37.6789366 104.151329,37.650818 104.095092,37.5664622 C104.038855,37.4821063 104.010736,37.2290389 104.010736,36.8353783 L104.010736,33.2080777 L100.214724,33.2080777 L100.214724,36.8072597 C100.214724,37.2571575 100.242843,37.5664622 100.270961,37.7351738 C100.327198,37.9038855 100.411554,38.0444785 100.608384,38.1850716 C100.777096,38.3256646 101.058282,38.4381391 101.423824,38.5224949 C101.789366,38.6068507 102.267382,38.6630879 102.857873,38.6630879 C103.364008,38.6630879 103.813906,38.6068507 104.179448,38.5224949 C104.573108,38.4381391 104.882413,38.297546 105.135481,38.1007157 L105.079243,38.5506135 L108.931493,38.5506135 L108.931493,33.2080777 L105.163599,33.2080777 M110.337423,33.1799591 L110.337423,39.2816973 L114.133436,39.2816973 L114.133436,38.0725971 C114.470859,38.2413088 114.836401,38.3819018 115.230061,38.4943763 C115.623722,38.5787321 116.07362,38.6349693 116.551636,38.6349693 C117.142127,38.6349693 117.648262,38.5787321 118.041922,38.4662577 C118.463701,38.3537832 118.744888,38.1850716 118.857362,37.9601227 C118.997955,37.7632924 119.082311,37.3977505 119.082311,36.9197342 L119.082311,34.6702454 C119.082311,34.2484663 119.026074,33.9391616 118.941718,33.7704499 C118.829243,33.6017382 118.548057,33.4330266 118.126278,33.2924335 C117.704499,33.1518405 117.170245,33.0956033 116.607873,33.0956033 C116.101738,33.0956033 115.65184,33.1518405 115.25818,33.2361963 C114.864519,33.3486708 114.498978,33.4892638 114.133436,33.6579755 L114.189673,33.1799591 L110.337423,33.1799591 L110.337423,33.1799591 Z M115.25818,37.00409 C115.25818,37.2852761 115.230061,37.4821063 115.173824,37.5383436 C115.117587,37.6226994 114.948875,37.650818 114.723926,37.650818 C114.470859,37.650818 114.330266,37.6226994 114.24591,37.5383436 C114.161554,37.4539877 114.133436,37.2571575 114.133436,36.9478528 L114.133436,34.7264826 C114.133436,34.4171779 114.161554,34.2203476 114.24591,34.1359918 C114.302147,34.051636 114.470859,34.0235174 114.723926,34.0235174 C114.976994,34.0235174 115.145706,34.051636 115.201943,34.1359918 C115.25818,34.192229 115.286299,34.3890593 115.286299,34.7264826 L115.286299,37.00409 L115.25818,37.00409 Z M128.923824,35.2326176 C128.923824,34.7264826 128.783231,34.3047035 128.502045,34.0235174 C128.220859,33.7423313 127.742843,33.5173824 127.067996,33.3205521 C126.365031,33.1518405 125.493354,33.0674847 124.424847,33.0674847 C123.55317,33.0674847 122.793967,33.1518405 122.119121,33.2924335 C121.444274,33.4330266 120.966258,33.6579755 120.685072,33.9110429 C120.403885,34.192229 120.235174,34.557771 120.235174,35.0357873 L120.235174,36.5823108 C120.235174,36.9759714 120.291411,37.2852761 120.432004,37.4821063 C120.572597,37.6789366 120.797546,37.8757669 121.134969,38.0444785 C121.472393,38.2131902 121.950409,38.3537832 122.569018,38.4662577 C123.187628,38.5787321 123.890593,38.6068507 124.677914,38.6068507 C125.493354,38.6068507 126.196319,38.5506135 126.730573,38.4662577 C127.292945,38.3537832 127.742843,38.2131902 128.108384,38.0163599 C128.473926,37.8195297 128.698875,37.6226994 128.783231,37.4539877 C128.867587,37.2852761 128.923824,37.00409 128.923824,36.6947853 L128.923824,36.3011247 L125.324642,36.3011247 L125.324642,37.00409 C125.324642,37.2571575 125.268405,37.4539877 125.184049,37.5383436 C125.099693,37.6226994 124.902863,37.6789366 124.593558,37.6789366 C124.368609,37.6789366 124.199898,37.650818 124.115542,37.5664622 C124.031186,37.5102249 124.003067,37.3415133 124.003067,37.0884458 L124.003067,35.9355828 L128.923824,35.9355828 L128.923824,35.2326176 L128.923824,35.2326176 Z M124.003067,35.0639059 L124.003067,34.6702454 C124.003067,34.3609407 124.031186,34.192229 124.087423,34.1078732 C124.143661,34.051636 124.312372,33.9953988 124.593558,33.9953988 C124.818507,33.9953988 124.9591,34.0235174 125.043456,34.1078732 C125.099693,34.192229 125.127812,34.3609407 125.127812,34.6421268 L125.127812,35.0357873 L124.003067,35.0357873 L124.003067,35.0639059 Z M130.161043,33.1799591 L130.161043,38.5224949 L133.957055,38.5224949 L133.957055,36.4135992 C133.957055,35.9074642 133.985174,35.5700409 134.06953,35.4294479 C134.153885,35.2888548 134.350716,35.1763804 134.66002,35.0920245 C134.997444,35.0076687 135.503579,34.9795501 136.206544,34.9795501 L136.206544,33.0956033 C135.138037,33.1237219 134.350716,33.404908 133.788344,33.8829243 L133.928937,33.1799591 L130.161043,33.1799591 M150.350204,32.4769939 L150.350204,33.3205521 L149.534765,33.3205521 L149.534765,34.1641104 L150.350204,34.1641104 L150.350204,36.8634969 C150.350204,37.3977505 150.378323,37.7351738 150.43456,37.8757669 C150.518916,38.0163599 150.687628,38.156953 150.968814,38.2694274 C151.25,38.3819018 151.559305,38.4381391 151.952965,38.4662577 C152.318507,38.4943763 152.937117,38.5224949 153.808793,38.5224949 L155.355317,38.5224949 L155.355317,37.6789366 C154.708589,37.6789366 154.343047,37.650818 154.28681,37.6226994 C154.202454,37.5945808 154.146217,37.3977505 154.146217,37.0322086 L154.146217,34.192229 L155.214724,34.192229 L155.214724,33.3486708 L154.146217,33.3486708 L154.146217,32.5051125 L150.350204,32.5051125 M164.409509,34.192229 C164.297035,33.9953988 164.072086,33.8266871 163.734663,33.6579755 C163.397239,33.4892638 162.919223,33.3486708 162.328732,33.2361963 C161.710123,33.1237219 160.979039,33.0674847 160.135481,33.0674847 C159.123211,33.0674847 158.279652,33.1518405 157.632924,33.3205521 C156.986196,33.4892638 156.536299,33.7142127 156.283231,33.9953988 C156.030164,34.2765849 155.889571,34.6702454 155.889571,35.1763804 L155.889571,36.5541922 C155.889571,37.00409 155.973926,37.3415133 156.114519,37.5664622 C156.255112,37.791411 156.480061,37.9882413 156.817485,38.156953 C157.126789,38.3256646 157.576687,38.4381391 158.167178,38.5224949 C158.757669,38.6068507 159.460634,38.6349693 160.304192,38.6349693 C161.063395,38.6349693 161.738241,38.5787321 162.300613,38.4943763 C162.891104,38.4100204 163.341002,38.2694274 163.734663,38.0725971 C164.100204,37.8757669 164.325153,37.6789366 164.437628,37.4539877 C164.550102,37.2290389 164.606339,36.8634969 164.606339,36.3854806 L164.606339,35.0639059 C164.606339,34.6702454 164.550102,34.3890593 164.409509,34.192229 Z M160.810327,37.1165644 C160.810327,37.3415133 160.782209,37.4821063 160.697853,37.5664622 C160.641616,37.650818 160.472904,37.6789366 160.247955,37.6789366 C160.023006,37.6789366 159.882413,37.650818 159.798057,37.5664622 C159.713701,37.4821063 159.685583,37.3133947 159.685583,37.0603272 L159.685583,34.6421268 C159.685583,34.3609407 159.713701,34.192229 159.798057,34.1359918 C159.882413,34.051636 160.023006,34.0235174 160.247955,34.0235174 C160.472904,34.0235174 160.641616,34.051636 160.697853,34.1359918 C160.75409,34.2203476 160.782209,34.3609407 160.782209,34.6421268 L160.782209,37.1165644 L160.810327,37.1165644 Z M165.871677,33.1799591 L165.871677,38.5224949 L169.667689,38.5224949 L169.667689,36.4135992 C169.667689,35.9074642 169.695808,35.5700409 169.780164,35.4294479 C169.864519,35.2888548 170.06135,35.1763804 170.370654,35.0920245 C170.708078,35.0076687 171.214213,34.9795501 171.917178,34.9795501 L171.917178,33.0956033 C170.848671,33.1237219 170.06135,33.404908 169.498978,33.8829243 L169.639571,33.1799591 L165.871677,33.1799591 M181.365031,35.2326176 C181.365031,34.7264826 181.224438,34.3047035 180.943252,34.0235174 C180.662065,33.7423313 180.184049,33.5173824 179.509202,33.3205521 C178.806237,33.1518405 177.93456,33.0674847 176.866053,33.0674847 C175.994376,33.0674847 175.235174,33.1518405 174.560327,33.2924335 C173.885481,33.4330266 173.407464,33.6579755 173.126278,33.9110429 C172.845092,34.192229 172.67638,34.557771 172.67638,35.0357873 L172.67638,36.5823108 C172.67638,36.9759714 172.732618,37.2852761 172.873211,37.4821063 C173.013804,37.6789366 173.238753,37.8757669 173.576176,38.0444785 C173.913599,38.2131902 174.391616,38.3537832 175.010225,38.4662577 C175.628834,38.5787321 176.3318,38.6068507 177.119121,38.6068507 C177.93456,38.6068507 178.637526,38.5506135 179.171779,38.4662577 C179.734151,38.3537832 180.184049,38.2131902 180.549591,38.0163599 C180.915133,37.8195297 181.140082,37.6226994 181.224438,37.4539877 C181.308793,37.2852761 181.365031,37.00409 181.365031,36.6947853 L181.365031,36.3011247 L177.765849,36.3011247 L177.765849,37.00409 C177.765849,37.2571575 177.709611,37.4539877 177.625256,37.5383436 C177.5409,37.6226994 177.34407,37.6789366 177.034765,37.6789366 C176.809816,37.6789366 176.641104,37.650818 176.556748,37.5664622 C176.472393,37.5102249 176.444274,37.3415133 176.444274,37.0884458 L176.444274,35.9355828 L181.365031,35.9355828 L181.365031,35.2326176 Z M176.444274,35.0639059 L176.444274,34.6702454 C176.444274,34.3609407 176.472393,34.192229 176.52863,34.1078732 C176.584867,34.051636 176.753579,33.9953988 177.034765,33.9953988 C177.259714,33.9953988 177.400307,34.0235174 177.484663,34.1078732 C177.5409,34.192229 177.569018,34.3609407 177.569018,34.6421268 L177.569018,35.0357873 L176.444274,35.0357873 L176.444274,35.0639059 Z M190.362986,34.557771 C190.362986,34.3047035 190.334867,34.1078732 190.27863,33.9672802 C190.194274,33.8548057 190.025562,33.7142127 189.716258,33.5736196 C189.406953,33.4330266 188.957055,33.2924335 188.366564,33.2080777 C187.776074,33.1237219 187.101227,33.0674847 186.257669,33.0674847 C185.442229,33.0674847 184.711145,33.1237219 184.064417,33.2361963 C183.417689,33.3486708 182.99591,33.4892638 182.714724,33.7142127 C182.461656,33.9110429 182.321063,34.2203476 182.321063,34.6702454 C182.321063,34.9795501 182.433538,35.2326176 182.686605,35.4575665 C182.939673,35.6825153 183.614519,35.9074642 184.739264,36.1886503 C186.060838,36.497955 186.791922,36.6947853 186.932515,36.7510225 C187.073108,36.8072597 187.157464,36.9759714 187.157464,37.2290389 C187.157464,37.4258691 187.101227,37.5383436 187.016871,37.5945808 C186.904397,37.650818 186.735685,37.6789366 186.454499,37.6789366 C186.201431,37.6789366 186.03272,37.650818 185.948364,37.5383436 C185.864008,37.4539877 185.807771,37.2852761 185.807771,36.9759714 L185.807771,36.6385481 L182.433538,36.6385481 L182.433538,36.8916155 C182.433538,37.3415133 182.574131,37.6789366 182.827198,37.8757669 C183.080266,38.1007157 183.558282,38.2694274 184.233129,38.4100204 C184.936094,38.5224949 185.751534,38.6068507 186.707566,38.6068507 C187.579243,38.6068507 188.310327,38.5506135 188.928937,38.4381391 C189.547546,38.3256646 189.997444,38.156953 190.250511,37.9320041 C190.503579,37.7070552 190.644172,37.3977505 190.644172,36.9478528 C190.644172,36.5541922 190.47546,36.2730061 190.138037,36.0480573 C189.800613,35.851227 189.06953,35.6262781 187.972904,35.4013292 C187.157464,35.2326176 186.595092,35.0920245 186.342025,35.0076687 C186.060838,34.9233129 185.920245,34.8389571 185.864008,34.7546012 C185.807771,34.6702454 185.779652,34.557771 185.779652,34.3890593 C185.779652,34.2765849 185.83589,34.1641104 185.920245,34.1078732 C186.03272,34.051636 186.201431,34.0235174 186.398262,34.0235174 C186.679448,34.0235174 186.820041,34.051636 186.904397,34.1359918 C186.960634,34.192229 186.988753,34.3609407 186.988753,34.6140082 L186.988753,34.8951943 L190.362986,34.8951943 L190.362986,34.557771"/><g fill="#161D36" transform="translate(31.437 47.464)"><path d="M5.23006135,2.3900818 L5.23006135,0.95603272 L4.66768916,0.95603272 C4.72392638,0.787321063 4.89263804,0.646728016 5.23006135,0.562372188 L5.23006135,0.0281186094 C4.7801636,0.0843558282 4.35838446,0.196830266 3.99284254,0.337423313 C3.62730061,0.506134969 3.37423313,0.674846626 3.20552147,0.899795501 C3.06492843,1.12474438 2.9805726,1.40593047 2.9805726,1.74335378 L2.9805726,2.3900818 L5.23006135,2.3900818 Z M2.24948875,2.3900818 L2.24948875,0.95603272 L1.68711656,0.95603272 C1.74335378,0.787321063 1.91206544,0.646728016 2.24948875,0.562372188 L2.24948875,0.0281186094 C1.799591,0.0843558282 1.37781186,0.196830266 1.01226994,0.337423313 C0.646728016,0.506134969 0.393660532,0.674846626 0.224948875,0.899795501 C0.0843558282,1.12474438 1.19876842e-14,1.40593047 1.19876842e-14,1.74335378 L1.19876842e-14,2.3900818 L2.24948875,2.3900818 L2.24948875,2.3900818 Z"/><polyline points="5.652 .056 5.652 1.49 7.733 1.49 7.733 7.311 11.219 7.311 11.219 1.49 13.272 1.49 13.272 .056 5.652 .056"/><path d="M13.9468303,0.0562372188 L13.9468303,7.31083845 L17.2929448,7.31083845 L17.2929448,3.06492843 C17.2929448,2.75562372 17.3210634,2.55879346 17.4054192,2.44631902 C17.4897751,2.33384458 17.6303681,2.27760736 17.8271984,2.27760736 C18.0521472,2.27760736 18.1927403,2.33384458 18.2489775,2.41820041 C18.3052147,2.53067485 18.3614519,2.72750511 18.3614519,3.09304703 L18.3614519,7.28271984 L21.7075665,7.28271984 L21.7075665,3.17740286 C21.7075665,2.61503067 21.6513292,2.22137014 21.5669734,2.02453988 C21.4826176,1.799591 21.2295501,1.63087935 20.807771,1.46216769 C20.4141104,1.29345603 19.9079755,1.2091002 19.3174847,1.2091002 C18.9519427,1.2091002 18.5864008,1.23721881 18.2489775,1.32157464 C17.9115542,1.40593047 17.6022495,1.4902863 17.3210634,1.63087935 L17.3210634,0 L13.9468303,0 M30.3962168,3.65541922 C30.3962168,3.06492843 30.2837423,2.64314928 30.0306748,2.30572597 C29.805726,1.99642127 29.3839468,1.71523517 28.7653374,1.54652352 C28.146728,1.34969325 27.3875256,1.26533742 26.4314928,1.26533742 C25.6722904,1.26533742 24.9974438,1.34969325 24.406953,1.51840491 C23.8164622,1.68711656 23.394683,1.91206544 23.1416155,2.19325153 C22.8885481,2.50255624 22.747955,2.89621677 22.747955,3.43047035 L22.747955,5.17382413 C22.747955,5.62372188 22.8041922,5.96114519 22.9166667,6.18609407 C23.0291411,6.41104294 23.2259714,6.63599182 23.5352761,6.83282209 C23.8445808,7.02965235 24.2663599,7.1702454 24.8006135,7.28271984 C25.3348671,7.39519427 25.9534765,7.45143149 26.6564417,7.45143149 C27.3875256,7.45143149 28.006135,7.39519427 28.4560327,7.28271984 C28.9340491,7.1702454 29.3277096,7.00153374 29.6651329,6.77658487 C29.9744376,6.55163599 30.1712679,6.32668712 30.2556237,6.12985685 C30.3399796,5.93302658 30.3962168,5.65184049 30.3962168,5.28629857 L30.3962168,4.83640082 L27.2188139,4.83640082 L27.2188139,5.62372188 C27.2188139,5.90490798 27.1625767,6.12985685 27.0782209,6.21421268 C26.993865,6.32668712 26.8251534,6.38292434 26.5720859,6.38292434 C26.3752556,6.38292434 26.2346626,6.35480573 26.1503067,6.2704499 C26.0940695,6.18609407 26.0378323,6.01738241 26.0378323,5.73619632 L26.0378323,4.44274029 L30.3680982,4.44274029 L30.3680982,3.65541922 L30.3962168,3.65541922 Z M26.0659509,3.48670757 L26.0659509,3.06492843 C26.0659509,2.72750511 26.0940695,2.53067485 26.1503067,2.44631902 C26.206544,2.36196319 26.347137,2.33384458 26.6002045,2.33384458 C26.7970348,2.33384458 26.9095092,2.3900818 26.993865,2.47443763 C27.0501022,2.55879346 27.0782209,2.75562372 27.0782209,3.06492843 L27.0782209,3.48670757 L26.0659509,3.48670757 L26.0659509,3.48670757 Z M35.5138037,0.0562372188 L33.7423313,7.31083845 L37.3415133,7.31083845 L37.5383436,6.01738241 L38.803681,6.01738241 L39.0005112,7.31083845 L42.5715746,7.31083845 L40.5751534,0.0562372188 L35.5138037,0.0562372188 Z M37.5383436,4.72392638 C37.6226994,4.07719836 37.8476483,3.06492843 38.1850716,1.65899796 C38.3819018,2.86809816 38.5506135,3.8803681 38.7193252,4.72392638 L37.5383436,4.72392638 L37.5383436,4.72392638 Z M43.049591,1.34969325 L43.049591,7.31083845 L46.3957055,7.31083845 L46.3957055,3.2898773 C46.3957055,2.83997955 46.4238241,2.55879346 46.4800613,2.47443763 C46.5362986,2.36196319 46.7050102,2.30572597 46.9299591,2.30572597 C47.154908,2.30572597 47.295501,2.36196319 47.3517382,2.44631902 C47.4079755,2.53067485 47.4079755,2.78374233 47.4079755,3.17740286 L47.4079755,7.31083845 L50.75409,7.31083845 L50.75409,3.14928425 C50.75409,2.61503067 50.6978528,2.24948875 50.6134969,2.02453988 C50.5010225,1.799591 50.2760736,1.63087935 49.9105317,1.46216769 C49.5449898,1.32157464 49.0669734,1.23721881 48.5046012,1.23721881 C48.0547035,1.23721881 47.6329243,1.29345603 47.295501,1.40593047 C46.9299591,1.51840491 46.648773,1.68711656 46.3957055,1.91206544 L46.4519427,1.34969325 L43.049591,1.34969325 M58.7397751,2.92433538 C58.7397751,2.64314928 58.7116564,2.41820041 58.6554192,2.24948875 C58.599182,2.10889571 58.4304703,1.96830266 58.1774029,1.799591 C57.8962168,1.63087935 57.5025562,1.4902863 56.9964213,1.40593047 C56.4902863,1.29345603 55.8716769,1.26533742 55.140593,1.26533742 C54.4095092,1.26533742 53.7627812,1.32157464 53.200409,1.46216769 C52.6380368,1.57464213 52.2443763,1.74335378 52.0194274,1.99642127 C51.7944785,2.22137014 51.6820041,2.58691207 51.6820041,3.06492843 C51.6820041,3.40235174 51.7944785,3.68353783 51.9913088,3.93660532 C52.2162577,4.1896728 52.8067485,4.44274029 53.7908998,4.75204499 C54.9718814,5.0894683 55.5904908,5.31441718 55.7310838,5.39877301 C55.8435583,5.48312883 55.9279141,5.65184049 55.9279141,5.93302658 C55.9279141,6.15797546 55.8716769,6.2704499 55.7873211,6.32668712 C55.6748466,6.38292434 55.5342536,6.43916155 55.3093047,6.43916155 C55.0843558,6.43916155 54.9437628,6.38292434 54.859407,6.29856851 C54.7750511,6.21421268 54.7469325,6.01738241 54.7469325,5.6799591 L54.7469325,5.31441718 L51.7944785,5.31441718 L51.7944785,5.59560327 C51.7944785,6.10173824 51.906953,6.46728016 52.1319018,6.72034765 C52.3568507,6.97341513 52.7786299,7.1702454 53.3691207,7.31083845 C53.9877301,7.45143149 54.7188139,7.53578732 55.5623722,7.53578732 C56.3215746,7.53578732 56.9964213,7.4795501 57.5306748,7.33895706 C58.0649284,7.19836401 58.458589,7.02965235 58.7116564,6.77658487 C58.9366053,6.52351738 59.0490798,6.15797546 59.0490798,5.6799591 C59.0490798,5.25817996 58.9084867,4.92075665 58.599182,4.69580777 C58.2898773,4.4708589 57.6712679,4.21779141 56.7152352,3.96472393 C55.9841513,3.76789366 55.506135,3.62730061 55.2811861,3.51482618 C55.0562372,3.40235174 54.9156442,3.31799591 54.859407,3.23364008 C54.8031697,3.14928425 54.8031697,3.00869121 54.8031697,2.83997955 C54.8031697,2.6993865 54.859407,2.61503067 54.9437628,2.53067485 C55.0562372,2.47443763 55.1687117,2.41820041 55.3655419,2.41820041 C55.5904908,2.41820041 55.7310838,2.44631902 55.8154397,2.53067485 C55.8716769,2.61503067 55.8997955,2.78374233 55.8997955,3.06492843 L55.8997955,3.37423313 L58.8522495,3.37423313 L58.8522495,2.92433538 M67.7939673,1.34969325 C67.4003067,2.61503067 67.1472393,3.76789366 67.0347648,4.7801636 L66.3317996,1.34969325 L63.5480573,1.34969325 C63.0981595,3.40235174 62.845092,4.55521472 62.8169734,4.7801636 C62.3389571,2.67126789 62.1140082,1.51840491 62.0858896,1.34969325 L59.2177914,1.34969325 L60.6237219,7.31083845 L64.2510225,7.31083845 L64.6165644,6.01738241 C64.7571575,5.48312883 64.8977505,4.94887526 65.0102249,4.41462168 C65.291411,5.59560327 65.4882413,6.5797546 65.6850716,7.31083845 L69.3123722,7.31083845 L70.6339468,1.34969325 L67.7939673,1.34969325 M78.7883436,3.65541922 C78.7883436,3.06492843 78.6758691,2.64314928 78.4228016,2.30572597 C78.1978528,1.99642127 77.7760736,1.71523517 77.1574642,1.54652352 C76.5388548,1.34969325 75.7796524,1.26533742 74.8236196,1.26533742 C74.0644172,1.26533742 73.3895706,1.34969325 72.7990798,1.51840491 C72.208589,1.68711656 71.7868098,1.91206544 71.5337423,2.19325153 C71.2806748,2.50255624 71.1400818,2.89621677 71.1400818,3.43047035 L71.1400818,5.17382413 C71.1400818,5.62372188 71.196319,5.96114519 71.3087935,6.18609407 C71.4212679,6.41104294 71.6180982,6.63599182 71.9274029,6.83282209 C72.2367076,7.02965235 72.6584867,7.1702454 73.1927403,7.28271984 C73.7269939,7.39519427 74.3456033,7.45143149 75.0485685,7.45143149 C75.7796524,7.45143149 76.3982618,7.39519427 76.8481595,7.28271984 C77.3261759,7.1702454 77.7198364,7.00153374 78.0572597,6.77658487 C78.3665644,6.55163599 78.5633947,6.32668712 78.6477505,6.12985685 C78.7321063,5.93302658 78.7883436,5.65184049 78.7883436,5.28629857 L78.7883436,4.83640082 L75.6109407,4.83640082 L75.6109407,5.62372188 C75.6109407,5.90490798 75.5547035,6.12985685 75.4703476,6.21421268 C75.3859918,6.32668712 75.2172802,6.38292434 74.9642127,6.38292434 C74.7673824,6.38292434 74.6267894,6.35480573 74.5424335,6.2704499 C74.4861963,6.18609407 74.4299591,6.01738241 74.4299591,5.73619632 L74.4299591,4.44274029 L78.7883436,4.44274029 L78.7883436,3.65541922 Z M74.4580777,3.48670757 L74.4580777,3.06492843 C74.4580777,2.72750511 74.4861963,2.53067485 74.5424335,2.44631902 C74.5986708,2.36196319 74.7392638,2.33384458 74.9923313,2.33384458 C75.1891616,2.33384458 75.301636,2.3900818 75.3859918,2.47443763 C75.442229,2.55879346 75.4703476,2.75562372 75.4703476,3.06492843 L75.4703476,3.48670757 L74.4580777,3.48670757 L74.4580777,3.48670757 Z M79.8568507,1.34969325 L79.8568507,7.31083845 L83.2029652,7.31083845 L83.2029652,4.94887526 C83.2029652,4.35838446 83.2310838,3.99284254 83.3154397,3.82413088 C83.3716769,3.65541922 83.5403885,3.54294479 83.8496933,3.45858896 C84.1308793,3.37423313 84.5807771,3.31799591 85.1993865,3.31799591 L85.1993865,1.23721881 C84.2714724,1.26533742 83.5685072,1.57464213 83.0904908,2.13701431 L83.2029652,1.34969325 L79.8568507,1.34969325"/><polygon points="89.024 7.311 92.51 7.311 92.51 .056 89.024 .056"/><path d="M100.608384,2.92433538 C100.608384,2.64314928 100.580266,2.41820041 100.524029,2.24948875 C100.467791,2.10889571 100.29908,1.96830266 100.046012,1.799591 C99.7648262,1.63087935 99.3711656,1.4902863 98.8650307,1.40593047 C98.3588957,1.29345603 97.7402863,1.26533742 97.0092025,1.26533742 C96.2781186,1.26533742 95.6313906,1.32157464 95.0690184,1.46216769 C94.5066462,1.57464213 94.1129857,1.74335378 93.8880368,1.99642127 C93.6630879,2.22137014 93.5506135,2.58691207 93.5506135,3.06492843 C93.5506135,3.40235174 93.6630879,3.68353783 93.8599182,3.93660532 C94.0848671,4.1896728 94.6753579,4.44274029 95.6595092,4.75204499 C96.8404908,5.0894683 97.4591002,5.31441718 97.5996933,5.39877301 C97.7121677,5.48312883 97.7965235,5.65184049 97.7965235,5.93302658 C97.7965235,6.15797546 97.7402863,6.2704499 97.6559305,6.32668712 C97.543456,6.38292434 97.402863,6.43916155 97.1779141,6.43916155 C96.9529652,6.43916155 96.8123722,6.38292434 96.7280164,6.29856851 C96.6436605,6.21421268 96.6155419,6.01738241 96.6155419,5.6799591 L96.6155419,5.31441718 L93.6630879,5.31441718 L93.6630879,5.59560327 C93.6630879,6.10173824 93.7755624,6.46728016 94.0005112,6.72034765 C94.2254601,6.97341513 94.6472393,7.1702454 95.2377301,7.31083845 C95.8563395,7.45143149 96.5874233,7.53578732 97.4309816,7.53578732 C98.190184,7.53578732 98.8650307,7.4795501 99.3992843,7.33895706 C99.9335378,7.19836401 100.327198,7.02965235 100.580266,6.77658487 C100.805215,6.52351738 100.917689,6.15797546 100.917689,5.6799591 C100.917689,5.25817996 100.777096,4.92075665 100.467791,4.69580777 C100.158487,4.4708589 99.5398773,4.21779141 98.5838446,3.96472393 C97.8527607,3.76789366 97.3747444,3.62730061 97.1497955,3.51482618 C96.9248466,3.40235174 96.7842536,3.31799591 96.7280164,3.23364008 C96.6717791,3.14928425 96.6717791,3.00869121 96.6717791,2.83997955 C96.6717791,2.6993865 96.7280164,2.61503067 96.8123722,2.53067485 C96.9248466,2.47443763 97.0373211,2.41820041 97.2341513,2.41820041 C97.4591002,2.41820041 97.5996933,2.44631902 97.6840491,2.53067485 C97.7402863,2.61503067 97.7684049,2.78374233 97.7684049,3.06492843 L97.7684049,3.37423313 L100.720859,3.37423313 L100.720859,2.92433538 M109.072086,0.0562372188 C108.622188,1.2091002 108.312883,2.13701431 108.116053,2.92433538 C108.059816,2.44631902 107.750511,1.4902863 107.272495,0.0562372188 L104.066973,0.0562372188 L106.513292,4.69580777 L106.513292,7.31083845 L109.718814,7.31083845 L109.718814,4.69580777 L112.249489,0.0562372188 L109.072086,0.0562372188 M120.31953,3.65541922 C120.31953,3.06492843 120.207055,2.64314928 119.953988,2.30572597 C119.729039,1.99642127 119.30726,1.71523517 118.68865,1.54652352 C118.070041,1.34969325 117.310838,1.26533742 116.354806,1.26533742 C115.595603,1.26533742 114.920757,1.34969325 114.330266,1.51840491 C113.739775,1.68711656 113.317996,1.91206544 113.064928,2.19325153 C112.811861,2.50255624 112.671268,2.89621677 112.671268,3.43047035 L112.671268,5.17382413 C112.671268,5.62372188 112.727505,5.96114519 112.83998,6.18609407 C112.952454,6.41104294 113.149284,6.63599182 113.458589,6.83282209 C113.767894,7.02965235 114.189673,7.1702454 114.723926,7.28271984 C115.25818,7.39519427 115.876789,7.45143149 116.579755,7.45143149 C117.310838,7.45143149 117.929448,7.39519427 118.379346,7.28271984 C118.857362,7.1702454 119.251022,7.00153374 119.588446,6.77658487 C119.897751,6.55163599 120.094581,6.32668712 120.178937,6.12985685 C120.263292,5.93302658 120.31953,5.65184049 120.31953,5.28629857 L120.31953,4.83640082 L117.142127,4.83640082 L117.142127,5.62372188 C117.142127,5.90490798 117.08589,6.12985685 117.001534,6.21421268 C116.917178,6.32668712 116.748466,6.38292434 116.495399,6.38292434 C116.298569,6.38292434 116.157975,6.35480573 116.07362,6.2704499 C116.017382,6.18609407 115.961145,6.01738241 115.961145,5.73619632 L115.961145,4.44274029 L120.291411,4.44274029 L120.291411,3.65541922 L120.31953,3.65541922 Z M115.989264,3.48670757 L115.989264,3.06492843 C115.989264,2.72750511 116.017382,2.53067485 116.07362,2.44631902 C116.129857,2.36196319 116.27045,2.33384458 116.523517,2.33384458 C116.720348,2.33384458 116.832822,2.3900818 116.917178,2.47443763 C116.973415,2.55879346 117.001534,2.75562372 117.001534,3.06492843 L117.001534,3.48670757 L115.989264,3.48670757 L115.989264,3.48670757 Z M128.220859,2.92433538 C128.220859,2.64314928 128.19274,2.41820041 128.136503,2.24948875 C128.080266,2.10889571 127.911554,1.96830266 127.658487,1.799591 C127.377301,1.63087935 126.98364,1.4902863 126.477505,1.40593047 C125.97137,1.29345603 125.352761,1.26533742 124.621677,1.26533742 C123.890593,1.26533742 123.243865,1.32157464 122.681493,1.46216769 C122.119121,1.57464213 121.72546,1.74335378 121.500511,1.99642127 C121.275562,2.22137014 121.163088,2.58691207 121.163088,3.06492843 C121.163088,3.40235174 121.275562,3.68353783 121.472393,3.93660532 C121.697342,4.1896728 122.287832,4.44274029 123.271984,4.75204499 C124.452965,5.0894683 125.071575,5.31441718 125.212168,5.39877301 C125.324642,5.48312883 125.408998,5.65184049 125.408998,5.93302658 C125.408998,6.15797546 125.352761,6.2704499 125.268405,6.32668712 C125.15593,6.38292434 125.015337,6.43916155 124.790389,6.43916155 C124.56544,6.43916155 124.424847,6.38292434 124.340491,6.29856851 C124.256135,6.21421268 124.228016,6.01738241 124.228016,5.6799591 L124.228016,5.31441718 L121.247444,5.31441718 L121.247444,5.59560327 C121.247444,6.10173824 121.359918,6.46728016 121.584867,6.72034765 C121.809816,6.97341513 122.231595,7.1702454 122.822086,7.31083845 C123.440695,7.45143149 124.171779,7.53578732 125.015337,7.53578732 C125.77454,7.53578732 126.449387,7.4795501 126.98364,7.33895706 C127.517894,7.19836401 127.911554,7.02965235 128.164622,6.77658487 C128.389571,6.52351738 128.502045,6.15797546 128.502045,5.6799591 C128.502045,5.25817996 128.361452,4.92075665 128.052147,4.69580777 C127.742843,4.4708589 127.124233,4.21779141 126.1682,3.96472393 C125.437117,3.76789366 124.9591,3.62730061 124.734151,3.51482618 C124.509202,3.40235174 124.368609,3.31799591 124.312372,3.23364008 C124.256135,3.14928425 124.256135,3.00869121 124.256135,2.83997955 C124.256135,2.6993865 124.312372,2.61503067 124.396728,2.53067485 C124.509202,2.47443763 124.621677,2.41820041 124.818507,2.41820041 C125.043456,2.41820041 125.184049,2.44631902 125.268405,2.53067485 C125.324642,2.61503067 125.352761,2.78374233 125.352761,3.06492843 L125.352761,3.37423313 L128.305215,3.37423313 L128.305215,2.92433538 M129.373722,0.0562372188 L129.907975,5.53936605 L132.494888,5.53936605 L133.029141,0.0562372188 L129.373722,0.0562372188 Z M129.654908,7.31083845 L132.776074,7.31083845 L132.776074,5.84867076 L129.654908,5.84867076 L129.654908,7.31083845 Z M136.628323,0.0562372188 L136.628323,1.4902863 L137.190695,1.4902863 C137.134458,1.65899796 136.965746,1.799591 136.628323,1.88394683 L136.628323,2.41820041 C137.078221,2.36196319 137.5,2.24948875 137.865542,2.10889571 C138.231084,1.94018405 138.484151,1.77147239 138.652863,1.54652352 C138.793456,1.32157464 138.877812,1.04038855 138.877812,0.702965235 L138.877812,0.0562372188 L136.628323,0.0562372188 Z M133.675869,0.0562372188 L133.675869,1.4902863 L134.238241,1.4902863 C134.182004,1.65899796 134.013292,1.799591 133.675869,1.88394683 L133.675869,2.41820041 C134.125767,2.36196319 134.547546,2.24948875 134.913088,2.10889571 C135.27863,1.94018405 135.531697,1.77147239 135.700409,1.54652352 C135.841002,1.32157464 135.925358,1.04038855 135.925358,0.702965235 L135.925358,0.0562372188 L133.675869,0.0562372188 L133.675869,0.0562372188 Z M135.981595,5.39877301 C136.122188,5.39877301 136.206544,5.3706544 136.206544,5.17382413 C136.206544,5.00511247 136.009714,5.00511247 135.897239,5.00511247 L135.67229,5.00511247 L135.67229,5.39877301 L135.981595,5.39877301 Z M135.67229,6.38292434 L135.27863,6.38292434 L135.27863,4.69580777 L135.897239,4.69580777 C136.347137,4.69580777 136.600204,4.80828221 136.600204,5.20194274 C136.600204,5.51124744 136.403374,5.62372188 136.122188,5.65184049 L136.543967,6.38292434 L136.150307,6.38292434 L135.756646,5.6799591 L135.644172,5.6799591 L135.644172,6.38292434 L135.67229,6.38292434 Z M136.993865,5.53936605 C136.993865,4.86451943 136.48773,4.38650307 135.897239,4.38650307 C135.306748,4.38650307 134.800613,4.86451943 134.800613,5.53936605 C134.800613,6.21421268 135.27863,6.69222904 135.897239,6.69222904 C136.48773,6.69222904 136.993865,6.24233129 136.993865,5.53936605 Z M134.294479,5.53936605 C134.294479,4.55521472 135.053681,3.99284254 135.897239,3.99284254 C136.712679,3.99284254 137.5,4.55521472 137.5,5.53936605 C137.5,6.52351738 136.712679,7.08588957 135.897239,7.08588957 C135.0818,7.08588957 134.294479,6.52351738 134.294479,5.53936605 L134.294479,5.53936605 Z"/></g><path fill="#CE242A" d="M199.248466,14.2280164 L199.248466,11.7254601 L200.035787,11.7254601 L200.485685,13.4406953 L200.935583,11.7254601 L201.722904,11.7254601 L201.722904,14.2280164 L201.244888,14.2280164 L201.244888,12.2315951 L200.710634,14.2280164 L200.260736,14.2280164 L199.726483,12.2315951 L199.726483,14.2280164 L199.248466,14.2280164 Z M197.814417,14.2280164 L197.814417,12.1472393 L197.027096,12.1472393 L197.027096,11.7254601 L199.079755,11.7254601 L199.079755,12.1472393 L198.320552,12.1472393 L198.320552,14.2280164 L197.814417,14.2280164 L197.814417,14.2280164 Z"/></g></svg>